<svg xmlns="http://www.w3.org/2000/svg" viewBox="0 0 580.59 617.87"><defs><style>.cls-1{fill:#1c1c1b;}.cls-2{fill:#292927;}.cls-3{fill:#fbfbfb;}.cls-4{fill:#fefefe;}.cls-5{fill:#fdfdfd;}</style></defs><g id="Layer_2" data-name="Layer 2"><g id="Layer_1-2" data-name="Layer 1"><g id="Group_847" data-name="Group 847"><path id="Path_767" data-name="Path 767" class="cls-1" d="M440.56,11.11a72.83,72.83,0,0,1-37.63,9.56c-11.7-.18-23.4-1-35.1.63-22.7,3.24-41.14,14.3-54.44,35.28-5.52,8.7-10.56,17.77-16.7,26-14.33,19.15-32.92,29.39-55,32.44-6.14.85-12.29,1.68-17.81,5.14a22.73,22.73,0,0,0-11,18A16.93,16.93,0,0,1,210,146.1a107.65,107.65,0,0,0-11.84,26.05c-1,3.26-2.55,5.22-5.93,5.12-4.57-.14-6.64,1.48-6.57,4.73s3.37,5.79,7.31,5.45a12,12,0,0,0,1.55-.35c-.16,3.33-.44,6.35-.42,9.38.07,15,8.51,24.42,22.07,24.15,3.95-.08,5.41,1.11,6.22,5.29,2.17,11.23,4.67,22.4,7.29,33.51a6.48,6.48,0,0,1-1.65,6.48c-21.15,25-42.25,50-61.65,76.78-.33.45-.65.92-1,1.35-2.38,2.86-3.94,8.75-6.65,8.48-3.94-.38-7.6-4.19-11.36-6.57-1.13-.72-1.28-2.13-1.72-3.33-2-5.39-3.8-10.85-6.58-15.83-.74-1.34-1.55-3.05-3.27-2.63-1.92.46-2.54,2.3-2.72,4.32-.26,3.06.39,6,.85,9.31-5.24-2.42-9.91-5.5-15.16-7-2.25-.64-5.15-2.08-6.48.63s1.76,4.12,3.36,5.52c3.37,3,7,5.57,11,8.66-5.84,1-11.33,1.22-16.58,2.87a29.5,29.5,0,0,0-5.2,2c-2,1.07-3.58,2.76-2.58,5.53.56,1.57-.1,2-1.11,2.65-1.2.7-2.3,1.59-1.92,3.38a3.7,3.7,0,0,0,3.18,2.86c2.35.55,4.72.14,7.08-.09s4.92-.44,7.63-.68c-.75,1.84-2.24,1.9-3.23,2.71-1.82,1.5-5,2.57-3.94,5.62,1.31,3.59,4.5,2,6.93,1.11a60.73,60.73,0,0,0,6.52-3.1c6.45-3.23,6.64-3.4,11.61,2.14,6.81,7.59,7.38,5-.41,12.85a51.72,51.72,0,0,1-11.3,8.71c-10.71,6.09-21.16,6-31.39-1.41-12.23-8.9-22.3-20.37-32-32.36-1.49-1.85-2.85-3.83-4.38-5.64-9.29-11-15.77-23.53-17.91-38.6a47.7,47.7,0,0,0-1.55-5.86c-.35-1.26-.71-2.73-2.15-2.71s-2.25,1.3-2.83,2.69c-1,2.35-.85,4.84-.84,7.3,0,2,.15,3.93.27,6.85-3.88-4.15-7.13-7.67-10.44-11.13-2.2-2.3-4.4-4.61-6.76-6.71-1.51-1.34-3.47-3-5.23-.85a10.29,10.29,0,0,0-.62,2.63,4.19,4.19,0,0,0-2.89,1.15c-.81.87-.93,3,.3,5.09,2.67,4.54,5.8,8.65,8.73,12.94,1,1.49,2.32,2.78,2.87,5.13-3.92-1.28-6.65-4.31-9.93-6.19-1.85-1.06-4-3.81-5.89-1.21-2,2.78.93,4.58,2.45,6.45a3.6,3.6,0,0,0,.9.84c9.09,5.4,13.58,14.85,18.24,24.42,15.9,32.62,33.43,64.08,55.68,92,23.53,29.53,52.14,50,87,59.09a121.25,121.25,0,0,0,46.25,3.29c2.43-.31,3.76.33,4.93,2.85,2.58,5.56,5.39,11,8.43,16.28,1.43,2.46,1.06,3.86-.56,5.93-10.76,13.72-20,28.54-25.59,45.8a74.31,74.31,0,0,0-2.49,10.09c-2.7,15.47,4.59,25.38,18.84,25.58,10,.14,19.08-3.81,27.8-8.75,20.57-11.66,38.12-27.94,55.26-44.78,5.61-5.52,11-11.28,16.45-17a4.93,4.93,0,0,1,4.51-1.85c33.87,3.8,62.5-8.87,86.09-35.23,21.18-23.65,35.67-51.72,41.52-84.76a159.71,159.71,0,0,0,1.06-46.56,9.88,9.88,0,0,1,1.68-7.19c16.07-24.7,31.75-49.71,44.8-76.58,4.8-9.88,9.27-19.94,11.47-31,2.82-14.21-4.09-22.08-17.05-19.4-8.47,1.75-15.75,6.37-22.68,11.75C450.78,268,438.09,282.19,426,297.1c-1.84,2.27-3.65,4.57-5.65,7.07a170.05,170.05,0,0,0-20.83-25.3c-18.06-17.8-39.42-27.51-63-31.76a174.39,174.39,0,0,0-63.65.63c-1.38.26-2.9.92-3.58-1.34-4-13.49-8.08-27-12.46-41.59,9.44,9.61,19.67,14.58,31.35,16.1,15.2,2,29.53-1.79,43.57-7.65,11.24-4.69,21.55-11.48,32.09-17.7,18.12-10.69,37.23-13.28,57.39-10.2,18.5,2.82,37,6,55.64,7.19,16.81,1.09,33.38-.49,49.54-6,10.52-4.7,20.46-10.44,29.11-18.73,14.4-13.79,21.8-31.42,23.19-52.2C581.8,69.25,554.18,24.18,512,8.19c-9.22-3.49-18.54-6.47-28.23-7.7-12.62-1.59-24.58,1.06-36,7.16C445.41,8.91,443,10,440.56,11.11Zm-131.24,348a3.47,3.47,0,0,1-.6-2.48c-.62-1.1-.22-3.55-2.07-2.94-1.27.43-.41,2.31-.17,3.5a96.71,96.71,0,0,1,2,23.33c-.92,24-15.3,39-36.52,38.08l-3-.09c-6.82.15-13.28-1.88-19.58-4.38-9.4-3.73-18.49-8.21-26.53-14.94-1,.31-1.62-.57-2.35-1.08-8.21-5.5-15.86-11.9-23.7-18-1.12-.87-2-1.65-1.73-3.48.8-6.62,1.11-13.3,2.55-19.82.13-.74.26-1.47.4-2.21a213.11,213.11,0,0,1,14.85-53.4,2.56,2.56,0,0,1,.84-2.09c.78-2,1.64-3.94,2.32-6,.91-2.7,1.87-3.27,4.49-1.66a49.58,49.58,0,0,0,26.06,7.28c12.16.09,23.22-4.1,33.8-10.28l2-1.16a91.85,91.85,0,0,0,22.19-22.74l1.06-1.86c2.05-4.21,4.37-8.3,5.66-12.89.63-2.23,1.57-2.85,3.63-2.74,18,1,35.4,4.52,52.22,11.89,5.83,2.55,8.67,6.91,10.16,13.11a93.44,93.44,0,0,1,2,28.59,38,38,0,0,0,.2,10c.6,3.2,2.4,4.7,5.17,5s4.35-1.67,5.16-4.31a53.14,53.14,0,0,0,1.71-12c.41-5.94.73-11.9,2.42-17.64.91-3.11,1.85-3.34,4.15-1.1,15.67,15.24,26.93,34,35.8,54.65.34,1.08.69,2.15,1,3.23,4.63,10.41,7,21.53,8.68,32.91l.66,2.56c.34,2,.77,4,1,6,4,34.55-2.81,66.47-19.21,96-.43.78-.57,2-2,1.87-20.21-58.6-58.9-86.1-115.67-82.81.71-3.72,1.3-6.83,1.9-9.94.1-.83.2-1.65.29-2.48.48-7.92-.41-15.74-1.27-23.56Zm-239,17.33c2.33,2.33,4.63,4.72,7,7C84.19,390,91,397.13,100,399.47c11.3,2.93,22.14,7.32,33.25,10.83a23.72,23.72,0,0,0,8.56,1.34c3-.18,5-1.54,5.67-4.93s-1.06-5.31-3.51-6.5-5.2-2-7.78-3.07-5.53-1.21-8.15-3.21a88,88,0,0,0,12.72-11.6c1.05-1.21,1.7-1.31,2.75.06,7.11,9.34,14.53,18.3,19,29.84,11.24,29.2,15.79,59.62,15,91.21-.09,4-.93,4.95-4.41,4.17a155,155,0,0,1-28.77-9c-32.62-14.23-57.64-38.9-78.46-69.52-18-26.5-33.13-54.95-47.15-84.17a24.12,24.12,0,0,0-6.87-8.8c-3.13-2.49-6.5-4.72-8.65-8.59,3.15,1.66,6,3.87,9,5.7,1.93,1.17,4.21,3.88,6.3,1.25,1.93-2.42-.66-4.54-1.86-6.39-2.6-4-5.54-7.78-8.2-11.77-1.11-1.66-2.5-3.34-2.24-5.82,2.31.23,3.21,2.1,4.4,3.61q5.17,6.6,10.44,13.11c.5.62,1.16,1.6,1.93.92,1-.86.25-1.8-.4-2.57-2.23-2.68-4.52-5.3-6.66-8.06-2.32-3-5-5.76-6.42-10.25A9.73,9.73,0,0,1,14,310.34q8.72,9.2,17.36,18.49c.55.59,1,1.65,1.84.94.37-.3.41-1.31.37-2-.08-1-.47-2-.53-3-.31-4.6-1.77-9.28.76-14.71,3.88,12.81,4.65,26.07,12.67,36.1C54,356.65,62,366.67,70.28,376.39Zm86.24,18.54c3.78-1,6.82-4.28,10.36-5.61,7.12-2.67,10.32-7.16,9.79-15.48-.26-4.22,1.12-4.84,4.3-2.48,13.31,9.91,26.44,20.14,39.93,29.74s27.75,17.23,43.88,19.6c6.51,1,13.13.24,19.63,1.75,10.46,2.41,20.22,7.3,30.51,10.28,3.58,1,7.14,2,10.88,1.63,3.13-.29,5.05-2.1,5.85-5.48s-.73-5.29-3-6.88a31,31,0,0,0-8.4-3.66c-5.27-1.76-10.68-3.06-15.65-5.86-2.92-1.64-4.81-3.27-1.52-6.74a13.37,13.37,0,0,0,2.9-5.15c.9-3,2.64-3.36,5.12-3.29a123,123,0,0,1,19.24,1.94c23.16,4.33,44,13.49,59.33,34.46,11.5,15.71,21.55,32.28,27.33,51.69a7.73,7.73,0,0,1-1.2,7.56A162.31,162.31,0,0,1,400.17,512c-20,20.29-43.19,31.58-70.59,31.76-21.4.13-40.41-7.61-58.11-20.37-46.64-33.62-82.92-78.59-115-128.48ZM298.71,247.11c-5.89,10.66-12.65,19.43-21.11,26.51C262,286.71,245.2,289.29,227.2,280c-2.55-1.32-3.9-2.52-1.56-5.49,1.46-1.86,2.35-4.3,3.88-6,2.92-3.31,3.26-6.7,1.94-11-4.37-14.44-4.1-28.62,2.84-42.2.35-.7,1-1.53.1-2.27s-1.5,0-2.17.38a34.89,34.89,0,0,1-11,4.55c-12.77,2.77-23.42-4.89-24.71-17.89a45.79,45.79,0,0,1,.26-11.34c.79-5.13.78-5.13-3.5-3.78a3.54,3.54,0,0,1-1.16.2c-2,0-4-.63-4.16-3-.17-2.83,2.08-2.44,3.75-2.3a7.27,7.27,0,0,0,6.47-2.48c1.55-1.74,2-4.07,2.72-6.23a107.41,107.41,0,0,1,11.55-24.5c4.16,19.3,13.31,34.28,26.1,43.11,5,3.44,6.4,2.93,8.25-3.17,1.18-3.88,3.39-6.51,7.18-6,3.64.45,5.11,3.76,5.72,7.39.66,4-.09,7.66-3.9,8.88-3.16,1-3,2.58-2.14,5.35,4.33,14,8.54,28.12,12.8,42.18.95,3.18,1.86,6.37,2.84,9.53.26.84.76,1.73,1.7,1.28.68-.33.61-1.31.33-1.94-.77-1.75-.4-2.56,1.38-2.89a194.7,194.7,0,0,1,26-3.07ZM201.26,461c5.41,6.24,11.8,11.16,13.34,21,1.83,11.65,10.42,17.94,19.25,23.31,5.49,3.34,6,4.62,5,11.53-.27,1.87-.63,3.72-.77,5.6-.66,9.18,2.79,14.5,10.91,16.87a20.36,20.36,0,0,0,4.64.89c6.84.31,11.61,4,14.58,10.71,1,2.34,2.08,4.69,3.29,6.92,3.5,6.48,7.78,12,15.25,14.22-3.25,3-6.31,5.46-9.05,8.34-2.16,2.28-3.7,2.36-6.27.43-25.48-19.09-44.13-44.45-56.91-75.28A217.55,217.55,0,0,1,201.26,461ZM193,376.29c-.57,0-.88.11-1.06,0-9.77-6.79-19.52-13.63-29.32-20.38-1.58-1.09-1.44-1.88-.4-3.31,4.79-6.56,9.17-13.51,14.3-19.7a72.43,72.43,0,0,1,16.82-15c4.88-3.11,6.82-2,7.59,4.2a27.41,27.41,0,0,1-.69,10.36A252.37,252.37,0,0,0,193,376.29ZM114.79,333c3.53-.13,3.74-.14,8.24,2,13.43,6.42,26,14.7,38.48,23,1.22.81,3.45.95,3.1,3.3a5.27,5.27,0,0,1-3.19,4.55,9,9,0,0,0-5.69,7.3c-.46,4.87-3.71,6.26-6.6,8.36-1.56,1.13-2.66,1-4-.69-3-3.7-6.23-7.11-9.27-10.75-3.71-4.43-7.68-5.35-12.66-2.34-3.38,2-6.87,4.25-11.1,4.33.49-2.24,2.12-2.8,3.47-3.5,3.33-1.72,6.76-3.22,10.13-4.82.91-.43,2.42-.47,2.1-2s-1.77-.9-2.71-.83c-6.17.51-12.33,1.17-18.5,1.63-1.6.12-3.37.67-5-.89,1.92-2.47,4.58-2.8,7-3.35a83.38,83.38,0,0,1,18.84-1.82c.92,0,2.51.59,2.51-1.11,0-1.52-1.53-1.3-2.52-1.28a115.24,115.24,0,0,0-17.7,1.43c-1.9.35-4.77,2.12-5.37-.93-.44-2.23,2.67-2.75,4.48-3.31a82.46,82.46,0,0,1,17.52-2.92c1.7-.15,4.35.69,4.86-1.47.44-1.86-2.21-2.44-3.54-3.47-4.27-3.28-8.78-6.2-12.88-10.41Zm50.84,80.1a13.32,13.32,0,0,1,1.38,1.43c9.47,14,18.86,28,29.71,40.7a5,5,0,0,1,1.15,2.21c1.78,10.73,2.06,21.44-1.73,31.74-2.17,5.89-6.54,8.09-12.15,7.11-3-.51-4.3-1.69-4.35-5.55a230,230,0,0,0-11.84-70.36c-.76-2.25-2.07-4.32-2.17-7.29ZM247,296.48a50.83,50.83,0,0,1-25.49-7.08c-1.78-1-3.44-1.95-1.53-4.41,1.39-1.79,1-6.08,5.32-3.51,8.47,5,17.61,7.44,27.34,6.22,15.69-2,27.46-11.51,37.69-24A100,100,0,0,0,300.22,249c.92-1.63,7.06-3.3,8.52-1.88,1.92,1.86-.12,3.9-.87,5.55C295.2,280.31,274.34,294,247,296.47ZM406.93,31.8c4.58,0,8.25,4,8.25,9.06s-3.78,9.2-8.24,9.2-8.27-4.26-8.28-9.18,3.72-9.09,8.27-9.09ZM166,386.51c-4.79,0-8.72-4.35-8.73-9.69s4-9.79,8.67-9.82,8.69,4.47,8.7,9.75S170.78,386.5,166,386.51Zm317.81-132c1.13.35,1.42,1.08.75,1.91a12.35,12.35,0,0,1-2.17,1.85c-14.71,11.42-28,24.55-38.91,40.4a20.31,20.31,0,0,1-1.25,1.68c-.37.43-1,.75-1.35.29a1.87,1.87,0,0,1-.24-1.54A11.27,11.27,0,0,1,442,297c11.21-16.2,24.83-29.53,39.88-41.16C482.48,255.31,483.17,254.91,483.78,254.5ZM204.23,593.11a44.64,44.64,0,0,1,4.51-15.06c5.82-12.23,13.79-22.66,22.24-32.69.48-.56.8-2.24,2.05-1,1.05,1.08.13,1.77-.49,2.49-.18.22-.37.41-.54.63-10.8,14-22.93,27.13-25.67,46.6-.1.74-.49,1.44-1.3,1.29C203.85,595.17,204.38,594.05,204.23,593.11Zm-68.15-267a83,83,0,0,1,7.33,17.18C136.16,339.52,133.74,334,136.08,326.13Zm251-297.92a4,4,0,0,1,3.63,4.36s0,.08,0,.12c-.05,2.78-1.56,4.37-4,4.35s-3.92-1.66-3.89-4.44,1.5-4.19,4.27-4.38Z"/><path id="Path_769" data-name="Path 769" class="cls-2" d="M580.51,142.41c.19-1.11.09-2.23-1.24-2.35s-1.46,1-1.72,2.06c-5.65,23.64-21.76,37.92-42.85,47.7-.8.3-1.58.65-2.35,1s-1.72.82-1.41,1.86c.4,1.35,1.57,1,2.54.77,18.66-3.92,44.53-31.8,46.91-50.57A4.54,4.54,0,0,1,580.51,142.41Z"/><path id="Path_770" data-name="Path 770" class="cls-2" d="M493.93,0c-1-.14-1.9.18-2,1.12C491.75,2.5,493,2.67,494,2.9a84.23,84.23,0,0,1,14.12,4.47A73.41,73.41,0,0,1,526.85,18.8c.73.62,1.55,1.58,2.64.61s.32-1.84-.45-2.51A75.14,75.14,0,0,0,493.93,0Z"/><path id="Path_771" data-name="Path 771" class="cls-1" d="M490.38,286.14a18.39,18.39,0,0,0,36.78-.13c0-10.1-8.74-18.74-18.75-18.48A18.57,18.57,0,0,0,490.38,286.14Z"/><path id="Path_772" data-name="Path 772" class="cls-2" d="M496.28,404.67c-1.38.66-1.6,2.09-2.09,3.32a293.39,293.39,0,0,1-34.83,63.66C434,507,402.61,535.34,362.31,552.92a196.75,196.75,0,0,1-29,10c-1.33.35-4.19.1-3.32,2.65.7,2,2.68.45,4,.1,44.1-11.54,80-36,109.89-69.88a296.55,296.55,0,0,0,51.61-83.25c.78-1.89,1.5-3.81,2.13-5.75C498,405.73,497.75,404.8,496.28,404.67Z"/><path id="Path_773" data-name="Path 773" class="cls-2" d="M110.54,497.18c1.91.1,2.44-.62,1.81-1.84a6.42,6.42,0,0,0-1.79-1.77c-30.33-23.92-50.19-55.5-65.74-90.17-3.35-7.46-6-15.21-9-22.83-.47-1.2-.56-3.12-2.49-2.43-1.55.56-.67,2-.29,3.08C48.38,424.11,69.91,463,105.22,493.05,107,494.59,109,496,110.54,497.18Z"/><path id="Path_774" data-name="Path 774" class="cls-2" d="M382.78,563.32c12.88-1.38,24-6.44,34.78-12.6a151.92,151.92,0,0,0,17.93-11.91c1.11-.87,3.49-1.78,2.33-3.35-1.49-2-3,.33-4.2,1.22-11.11,8-22.61,15.35-35.6,20.08a72.68,72.68,0,0,1-14.9,3.63c-1.32.18-3.66-.63-3.41,1.79C379.89,564.06,381.92,563.09,382.78,563.32Z"/><path id="Path_775" data-name="Path 775" class="cls-1" d="M434,261.34a7.86,7.86,0,1,0,15.72.12v-.29a7.86,7.86,0,0,0-15.72.17Z"/><path id="Path_776" data-name="Path 776" class="cls-2" d="M273.66,109.42c1.1,1.52,2.38,1.07,3.62.53a42.76,42.76,0,0,0,14.64-11c2.17-2.4,4.08-5,6-7.61a1.64,1.64,0,0,0,.06-2.31l0,0a1.38,1.38,0,0,0-2.16.45c-5.6,7.91-12.23,14.65-21.27,18.65C274.19,108.33,274,108.92,273.66,109.42Z"/><path id="Path_781" data-name="Path 781" class="cls-3" d="M199,380.81a270.94,270.94,0,0,1,9.41-51.48,28.94,28.94,0,0,0,.9-12.17c-1-7.29-3.52-8.57-9.86-4.93a92.19,92.19,0,0,0-21.86,17.61c-6.67,7.28-12.37,15.44-18.59,23.14-1.36,1.68-1.54,2.61.52,3.88,12.74,7.92,25.4,15.95,38.11,23.93C197.83,380.93,198.23,380.81,199,380.81Z"/><path id="Path_787" data-name="Path 787" class="cls-1" d="M302.39,260.44c5.52,1,11.07,1.86,16.55,3,6.21,1.33,12.22,3.29,17.41,7.14,1.86,1.37,3.42,3.15,2.68,5.62s-3,2.64-5,2.72c-2.9.1-5.81,0-8.71.13-1.19,0-3.08-.93-3.21,1.26-.1,1.59,1.55,1.47,2.67,1.75a37.2,37.2,0,0,1,14.69,7,25.66,25.66,0,0,1,3.72,3.5c1.79,2.13,3.45,4.54,2,7.44s-4.25,3.74-7.35,3.72c-6.08-.05-11.78-1.94-17.42-3.86-4.52-1.54-8.86-3.58-13.3-5.34-1.05-.42-2.47-1.14-3,.45-.43,1.22,1,1.67,1.81,2.11a16.47,16.47,0,0,1,8.45,9.85c2.49,8-3.09,14.12-11.35,12.37-6.9-1.47-11.8-6.05-16.38-10.92a60,60,0,0,1-13-21.28L271,288.49c4.4,11.4,11.15,21.09,20.92,28.57,3.43,2.63,7.13,4.74,11.47,5.38,9.46,1.4,16.39-6.46,13.8-15.62-.41-1.47-1-2.9-1.65-4.95,5.5,1.41,10.61,2.83,15.78,4,8.67,2,14.36.17,16.55-5.07,1.9-4.56-.75-9.68-7.68-14.7-1.65-1.2-3.4-2.27-5.14-3.42-.18-1,.76-.87,1.24-1.05,6.9-2.63,7.88-8.57,1.95-13.16-6.81-5.27-15-7.26-23.25-8.8-3.69-.69-7.45-1-11.18-1.43Z"/><g id="Group_848" data-name="Group 848"><path id="Path_788" data-name="Path 788" class="cls-1" d="M173.85,289.08c10.48,4.11,21,8.1,31.42,12.37a39.27,39.27,0,0,1,15.37,10.79c1.16,1.36,3.09,2.66,2.11,4.81a5.43,5.43,0,0,1-5.09,2.93c-7.35.16-14.69.17-22,.18-3.07,0-6.14-.18-9.22-.21-1,0-2.35-.15-2.45,1.2-.14,1.65,1.34,1.73,2.52,1.75,6.68.07,13.34.22,19.58,3a41,41,0,0,1,5.43,2.81A5.15,5.15,0,0,1,214,334c-.36,2.56-2.41,3.1-4.46,3.51a91.33,91.33,0,0,1-30,1.48c-1.7-.21-3.4-.37-5.1-.45-1.12,0-2.69-.59-3,1.08-.18,1.12,1.1,1.55,2.06,1.93a19.45,19.45,0,0,1,2.8,1.25c1.95,1.2,3.75,2.74,3.55,5.23s-2.35,3.54-4.6,4.17c-7,1.93-13.86,1.25-20.74-.41-.18.86-.35,1.73-.52,2.59a39.1,39.1,0,0,0,20.72.8c7.48-1.74,9.12-4.87,6.7-12.7,6.49-.3,12.91.35,19.21-.8,3-.55,6.1-.74,9.11-1.3,3.32-.61,6.37-1.9,7.13-5.66.71-3.56-1-6.29-3.68-8.44-1.07-.85-2.27-1.52-4.29-2.85,3.37-.17,5.95-.12,8.47-.48,3.43-.49,6.87-1.37,8.18-5.15,1.2-3.48-1.16-5.84-3.24-8.07-6.59-7-15.12-11-23.92-14.33-7.8-3-15.65-5.84-23.48-8.76A2.92,2.92,0,0,0,173.85,289.08Z"/><path id="Path_789" data-name="Path 789" class="cls-1" d="M473.78,371.51c-9.92-1.72-19.86-3.39-29.75-5.24a16.9,16.9,0,0,1-5.63-2.3c-2.46-1.54-4-3.93-3.37-6.93s3.22-3.63,5.82-4.25c7.2-1.73,14.25.33,21.37.65,1.58.07,4,1.1,4.42-1.08s-2.16-2.13-3.72-2.61c-7.15-2.22-14.68.2-21.87-1.93-3.75-1.11-7.73-1.56-11.18-3.55-3.18-1.83-5.25-4.45-4.63-8.38.56-3.6,3.52-4.29,6.41-4.9a59.3,59.3,0,0,1,30.84,1.9l-1.34-3.79c-7.89-1.29-15.74-3.08-23.82-1.92a60.57,60.57,0,0,0-7.56,1.28c-3.78,1.05-7,3-7.55,7.36s1.5,7.53,4.87,10.07c3,2.3,6.85,2.76,10.49,4.38-3.71,2.31-6.55,5-5.39,9.63,1.38,5.5,5.63,8.14,10.7,9.13,10.54,2.06,21.16,3.7,31.75,5.5Z"/><path id="Path_790" data-name="Path 790" class="cls-1" d="M186.83,404.08c.38-3.38.33-6.84,1.76-10s3.72-4.88,7.22-4.59c3.24.26,4.59,1.93,3.53,5.2-.9,2.75-1.8,5.49-2.55,8.28-.29,1.11-.47,2.69,1.06,3,1.73.36,1.48-1.32,1.83-2.39,1.64-5,2.69-10.26,6.81-14.05,4.59-4.22,8-3.75,10.93,1.65a83.71,83.71,0,0,1,6.1,14.05c.39,1.21.46,3,2.15,3.16s1.87-1.74,2.37-2.88a27.36,27.36,0,0,1,11-13.12c5.64-3.4,9.83-2.09,12.21,4,4.25,10.92,4.26,21.33-4.48,30.39l3.89.1c7.67-9.8,7.57-20.51,3.36-31.5-3.13-8.16-9.55-10.08-16.84-5.24a35.73,35.73,0,0,0-6.2,5.32,76.08,76.08,0,0,0-5,6.79c-2.07-4.43-3.86-8.6-6-12.62-3.58-6.92-9.17-8-14.91-2.6-2.06,1.92-3,2.38-5.67.57-4.47-3.1-10.43-.58-13.18,4.81-1.67,3.28-1.7,6.93-2.45,10.42C184.72,403.4,185.49,404.44,186.83,404.08Z"/><path id="Path_791" data-name="Path 791" class="cls-1" d="M299.21,357c11.8.22,23.6-.51,35.38.72a15.68,15.68,0,0,1,3.53.58c2.92,1.05,6.4,2.23,6.15,5.91-.28,4.1-4.2,3.86-7.17,4.08-4.93.35-9.9.42-14.84.6-1,0-2.32,0-2.4,1.29s1.31,1.29,2.28,1.4c5.6.64,11.24,1.15,16.43,3.66,2.84,1.38,5.95,3,5.14,6.69-.76,3.46-4.19,3.57-7.1,3.77-5.84.4-11.6-.7-17.36-1.33-6.17-.67-12.26-1-18.37.28-.13,1-.25,1.94-.38,2.91,9-1.87,18-.3,27,.6,3.92.4,7.83.85,11.72.17,3.48-.62,6.68-1.94,7.56-5.9s-1.77-6.32-4.55-8.41a38.33,38.33,0,0,0-3.65-2.15c.39-.31.58-.57.84-.65,3.78-1.17,8.19-2.09,7.86-7.22-.32-4.91-4.17-7.17-8.5-8.42-4.12-1.2-8.41-1.27-12.67-1.31q-13.83-.12-27.65-.2A3.81,3.81,0,0,0,299.21,357Z"/></g><path id="Path_792" data-name="Path 792" class="cls-3" d="M60.38,343c-2.9,8.39.69,15,5.7,21.31,2.83,3.59,5.1,7.62,7.67,11.41,2.12,3.12,4.91,5,8.64,3,3.06-1.6,6,.36,9-.29C80.56,367,70.16,355.28,60.38,343Z"/><path id="Path_793" data-name="Path 793" class="cls-3" d="M167.24,387.82a11.3,11.3,0,0,0,11.23-11.37v-.08a11.29,11.29,0,1,0-22.58.08A11.4,11.4,0,0,0,167.24,387.82Zm-4.65-12c2-2.37,2-7.2,4.13-8.47s.5,4,2.82,5.24a5,5,0,0,1,1.66,1.88c1.14,1.91.56,3.68-.88,5.11a3.91,3.91,0,0,1-4.66,1.06A5,5,0,0,1,162.59,375.8Z"/><path id="Path_794" data-name="Path 794" class="cls-3" d="M486.13,250.91c-.8.48-1.7,1-2.52,1.52-19.57,13.65-37.27,29.31-51.84,48.33a13.25,13.25,0,0,0-1.76,2.5,2,2,0,0,0,.31,1.81c.51.54,1.28.16,1.76-.35a23.9,23.9,0,0,0,1.62-2c14.23-18.61,31.46-34,50.58-47.42a15.73,15.73,0,0,0,2.82-2.18C488,252.18,487.6,251.32,486.13,250.91Z"/><path id="Path_795" data-name="Path 795" class="cls-3" d="M201.11,588.8c.2,1.1-.49,2.41,1,2.68,1.05.19,1.55-.64,1.69-1.51,3.56-22.85,19.32-38.24,33.36-54.7.22-.26.47-.49.71-.74.8-.85,2-1.66.63-2.92-1.61-1.49-2,.47-2.66,1.13-11,11.77-21.35,24-28.91,38.37C204,576.74,201.75,582.59,201.11,588.8Z"/><path id="Path_799" data-name="Path 799" class="cls-3" d="M107.42,196.47a36.92,36.92,0,0,0-.17-14.77c-.65-3.18-2.53-4.59-6-3.95-6,1.13-11.17,4.12-16.5,6.81-1.83.93-1.28,1.93-.28,3.15,1.84,2.23,3.59,4.54,5.37,6.82C95.72,195.35,101.49,196.6,107.42,196.47Z"/><path id="Path_812" data-name="Path 812" class="cls-3" d="M76.22,189.12c2.69.57,5,2.42,7.84,2.4C82.24,188.14,80.5,184.47,76.22,189.12Z"/><path id="Path_813" data-name="Path 813" class="cls-4" d="M54.64,122.82c1.87,2,3,1.35,4.26.63C57.8,122.33,56.66,122.75,54.64,122.82Z"/><path id="Path_814" data-name="Path 814" class="cls-3" d="M104.48,166.45l-.17.71.46.06c-.14-.23-.29-.46-.43-.7Z"/><path id="Path_815" data-name="Path 815" class="cls-5" d="M226,428.8a12.5,12.5,0,0,0,8.53-3.25c4-3.74,4-7.45-.48-10.58-12.05-8.38-24.21-16.6-36.38-24.82a11.32,11.32,0,0,0-4.21-1.75c-3-.57-5.86,0-7.47,3.06-1.73,3.24-.08,5.73,2.36,7.53,4.39,3.24,8.91,6.34,13.57,9.17,4.13,2.51,6.43,5.24,4.39,10.44-1.24,3.16.4,5.81,3.73,6.67C215.26,426.62,220.63,427.64,226,428.8Z"/><path id="Path_816" data-name="Path 816" class="cls-1" d="M328.53,498.53a66,66,0,0,0,23.54-4.36c5.23-2,7.44-6.4,5.74-10.83s-6.21-6.49-11.35-4.49c-8.17,3.18-16.58,3.61-25.17,2.74-5.71-.58-9.59,2-10.24,6.72-.67,5,2.15,8.52,7.8,9.38C322.05,498.17,325.3,498.26,328.53,498.53Z"/><path id="Path_817" data-name="Path 817" class="cls-3" d="M198.39,420.91c2.84-.18,5.35-1.29,5.23-4.39-.17-4-3.49-5.22-6.86-5.45-2.6-.18-4.7,1.15-5,4C191.46,417.83,195.15,421,198.39,420.91Z"/><path id="Path_818" data-name="Path 818" class="cls-1" d="M104.31,456.86c-.13,2.72,1.38,4.74,3.3,6.54a82.84,82.84,0,0,0,27.55,17.3c5.11,1.94,9.81,0,11.43-4.43s-.33-8.7-5.26-10.69a72.37,72.37,0,0,1-23.17-14.71,7.94,7.94,0,0,0-9.45-1.57A7.49,7.49,0,0,0,104.31,456.86Z"/><path id="Path_819" data-name="Path 819" class="cls-1" d="M142.22,480.39c-.13,5.37,4.53,9.26,11.18,9.32a8.5,8.5,0,0,0,8.35-8c.17-5.12-4.82-9.19-11.31-9.21a8,8,0,0,0-8.22,7.7Z"/><path id="Path_820" data-name="Path 820" class="cls-2" d="M28.21,341.17a20,20,0,0,0,2.52-.58c3.95-1.42,7.74-2.25,10.78,1.86a3.62,3.62,0,0,0,2.2,1.23c2,.27,4.9,2.82,5.87.26,1.14-3-2.76-2-4.28-2.71-3.63-1.73-5.72-4.18-5.77-8.25,0-.86-.17-1.73-1.19-2a1.15,1.15,0,0,0-1.46.74,1.6,1.6,0,0,0-.05.21c.54,5.87-4.34,4.85-7.5,6a11.88,11.88,0,0,0-1.48.38c-1,.49-2.74.4-2.26,2.12C25.94,341.65,27.26,341.18,28.21,341.17Z"/><path id="Path_821" data-name="Path 821" class="cls-3" d="M90.11,389.37c3.19-.25,5.65-1.52,5.55-4.53-.14-4-3.54-5.23-6.88-5.47-2.52-.19-5,1.07-4.88,4.05C84,387.33,87,388.74,90.11,389.37Z"/><path id="Path_822" data-name="Path 822" class="cls-2" d="M214.42,181.91a11.3,11.3,0,0,0,1.54,0c3.24-.45,7.06-.71,7.58-4.68s-3.2-5.33-6.21-6.39c-4.59-1.63-9.38-2.1-14,0-3.85,1.73-4.26,4.94-.94,7.57C205.88,181.14,210.05,182,214.42,181.91Zm-1.33-8.83c2.9.8,6.82.4,7.21,3.74.26,2.24-3,2.1-5,2.09C210.5,178.88,214.85,174.76,213.09,173.08Z"/><path id="Path_823" data-name="Path 823" class="cls-2" d="M210.49,208.67c8.7-.09,13.46-7.63,9.91-14.85-1.3-2.64-2.54-3.36-4.8-.91-3,3.25-6.21,6.28-9.21,9.51-1.08,1.15-3.25,2-2.4,4,.71,1.68,2.74,1.76,4.4,2.07A14.62,14.62,0,0,0,210.49,208.67ZM208,205.3,218,196.64c2.28,5.53-1.51,9.65-10.05,8.65Z"/><path id="Path_824" data-name="Path 824" class="cls-2" d="M255.06,187c1,1.72,1.23,2,1.35,2.26.66,1.55-1.12,4.73,1.46,4.54,2.26-.16,1.69-3.31,1.38-5.27a9.46,9.46,0,0,0-3-5.8c-1.12-1-2.42-2.62-3.94-1.63-2.06,1.34.5,2,.84,3.06.84,2.55-2,3.15-2.87,4.82-.63,1.17-3.06,2.11-1.08,3.67,1.45,1.13,2.33-.81,3.17-1.72A36.46,36.46,0,0,0,255.06,187Z"/><path id="Path_825" data-name="Path 825" class="cls-2" d="M161.9,376.31a5,5,0,0,0,3.07,4.81,3.89,3.89,0,0,0,4.66-1.05c1.44-1.43,2-3.2.88-5.11a5,5,0,0,0-1.66-1.88c-2.32-1.24-.58-6.56-2.83-5.24S163.89,373.93,161.9,376.31Z"/></g></g></g></svg>