<svg xmlns="http://www.w3.org/2000/svg" viewBox="0 0 24.74 27.54"><defs><style>.cls-1{fill:none;stroke:#ffffff;stroke-linecap:round;stroke-linejoin:round;stroke-width:2px;}</style></defs><g id="Layer_2" data-name="Layer 2"><g id="Layer_1-2" data-name="Layer 1"><g id="Group_37344" data-name="Group 37344"><path id="Path_2547" data-name="Path 2547" class="cls-1" d="M15.15,22.11v1.25a2.88,2.88,0,0,1-2.31,2.89A2.79,2.79,0,0,1,9.63,24a3.57,3.57,0,0,1,0-.47V22.11Z"/><path id="Path_2548" data-name="Path 2548" class="cls-1" d="M22,22.11H2.76a1.5,1.5,0,0,1-1.51-1.5h0v-.38a3,3,0,0,1,1.13-2.36h0A4.39,4.39,0,0,0,4,14.44V9.9A8.54,8.54,0,0,1,11,1.37a8.35,8.35,0,0,1,9.64,6.79,8.76,8.76,0,0,1,.13,1.44v4.84a4.38,4.38,0,0,0,1.64,3.43h0a3,3,0,0,1,1.13,2.36v.37A1.49,1.49,0,0,1,22,22.11Z"/></g></g></g></svg>