<svg xmlns="http://www.w3.org/2000/svg" viewBox="0 0 27.53 27.53"><defs><style>.cls-1{fill:none;stroke:#ffffff;stroke-linecap:round;stroke-linejoin:round;stroke-width:2px;}.cls-2{fill:#ffffff;}</style></defs><g id="Layer_2" data-name="Layer 2"><g id="Layer_1-2" data-name="Layer 1"><g id="Group_37348" data-name="Group 37348"><path id="Path_2550" data-name="Path 2550" class="cls-1" d="M26.28,18.46V10.64h-25V22.73A3.55,3.55,0,0,0,4.8,26.28H22.73a3.55,3.55,0,0,0,3.55-3.55h0Z"/><path id="Rectangle_6561" data-name="Rectangle 6561" class="cls-1" d="M3.59,3.53H23.94a2.34,2.34,0,0,1,2.34,2.34h0v4.77h-25V5.87A2.34,2.34,0,0,1,3.59,3.53Z"/><circle id="Ellipse_155" data-name="Ellipse 155" class="cls-2" cx="7.31" cy="16.05" r="1.52"/><circle id="Ellipse_156" data-name="Ellipse 156" class="cls-2" cx="14.13" cy="16.06" r="1.52"/><circle id="Ellipse_157" data-name="Ellipse 157" class="cls-2" cx="20.97" cy="16.06" r="1.52"/><circle id="Ellipse_158" data-name="Ellipse 158" class="cls-2" cx="7.31" cy="21.6" r="1.52"/><circle id="Ellipse_159" data-name="Ellipse 159" class="cls-2" cx="14.12" cy="21.6" r="1.52"/><line id="Line_286" data-name="Line 286" class="cls-1" x1="8.07" y1="5.8" x2="8.07" y2="1.25"/><line id="Line_287" data-name="Line 287" class="cls-1" x1="19.46" y1="5.8" x2="19.46" y2="1.25"/></g></g></g></svg>