<svg xmlns="http://www.w3.org/2000/svg" viewBox="0 0 24.49 24.06"><defs><style>.cls-1{fill:none;stroke:#ffffff;stroke-linecap:round;stroke-linejoin:round;stroke-width:2px;}</style></defs><g id="Layer_2" data-name="Layer 2"><g id="Layer_1-2" data-name="Layer 1"><path id="Path_2545" data-name="Path 2545" class="cls-1" d="M23.24,10.14V20.81a2,2,0,0,1-2,2h-4a2,2,0,0,1-2-2h0V16.92a2.95,2.95,0,1,0-5.89,0h0v3.89a2,2,0,0,1-2,2h-4a2,2,0,0,1-2-2V10.14A2,2,0,0,1,2,8.56l9-6.9a2,2,0,0,1,2.44,0l9,6.9A2,2,0,0,1,23.24,10.14Z"/></g></g></svg>