<svg xmlns="http://www.w3.org/2000/svg" viewBox="0 0 27.02 27.53"><defs><style>.cls-1{fill:none;stroke:#ffffff;stroke-linecap:round;stroke-linejoin:round;stroke-width:2px;}</style></defs><g id="Layer_2" data-name="Layer 2"><g id="Layer_1-2" data-name="Layer 1"><g id="Group_37419" data-name="Group 37419"><circle id="Ellipse_160" data-name="Ellipse 160" class="cls-1" cx="13.51" cy="13.76" r="3.69"/><path id="Path_2551" data-name="Path 2551" class="cls-1" d="M24.82,15.48l0,0a1.83,1.83,0,0,1,.66,2.5l-2.34,4.05a1.84,1.84,0,0,1-2.5.67h0a1.77,1.77,0,0,0-1.83,0l-.25.14a1.79,1.79,0,0,0-.92,1.58h0a1.83,1.83,0,0,1-1.83,1.83H11.16a1.82,1.82,0,0,1-1.82-1.83h0a1.82,1.82,0,0,0-.92-1.58l-.25-.14a1.79,1.79,0,0,0-1.83,0h0a1.84,1.84,0,0,1-2.5-.67L1.5,18a1.83,1.83,0,0,1,.66-2.5l0,0a1.84,1.84,0,0,0,.92-1.59v-.25a1.83,1.83,0,0,0-.92-1.59l0,0a1.83,1.83,0,0,1-.66-2.5h0l2.34-4a1.82,1.82,0,0,1,2.5-.67h0a1.79,1.79,0,0,0,1.83,0l.25-.15a1.8,1.8,0,0,0,.92-1.57h0a1.82,1.82,0,0,1,1.82-1.83h4.69a1.83,1.83,0,0,1,1.83,1.83h0a1.78,1.78,0,0,0,.92,1.58l.25.15a1.82,1.82,0,0,0,1.83,0h0a1.84,1.84,0,0,1,2.5.67l2.34,4a1.83,1.83,0,0,1-.66,2.5l0,0a1.8,1.8,0,0,0-.91,1.59v.25A1.81,1.81,0,0,0,24.82,15.48Z"/></g></g></g></svg>